<?xml version="1.0" encoding="UTF-8"?>
<svg data-bbox="0.2 0.219 1279.624 1013.482" viewBox="0 0 1280 1014" height="1352" width="1706.667" xmlns="http://www.w3.org/2000/svg" data-type="shape">
    <g>
        <path d="M1238.8 1.1c-3.2.7-29.3 13.1-104.8 49.6-11.3 5.5-38.7 18.7-60.9 29.4-44.2 21.2-47.8 23.5-52.7 33.5-3.5 7.1-4.3 16.9-2 24.5 2.9 10.1 6.7 13.5 36.6 33.9 15.1 10.3 27.5 19.1 27.5 19.6 0 1-393.7 526.3-394.5 526.4-.3 0-29-56.9-63.7-126.5-44.8-89.5-64.4-127.7-67-130.7-14.5-16.1-38-20.3-57.3-10.2-5.8 3-31.5 28.4-249.6 246.6C22.9 924.9 7.2 940.9 4.7 946.5c-4.1 9.6-5.3 17.2-4 26.1 2.2 15.6 12 29.2 25.9 36 13.5 6.7 27.6 6.8 41.6.3 5.9-2.8 21.6-18.3 223.5-220.1l217.1-217.1L574.5 703c74.3 148.6 68.8 139.1 85.1 147.2 7 3.4 9.3 4.1 16.6 4.5 13.5.9 25.7-3.2 35-11.5 2.3-2 104-136.9 226.1-299.7 122.1-162.8 222.5-296.6 223.2-297.4 1.1-1.1 5.3 1.4 25.3 15 31.7 21.6 33.2 22.4 44.7 22.4 10.1 0 14.9-1.7 22.3-8 5.1-4.4 9.9-14 10.7-21.5.3-3 3.9-51.2 8-107s7.8-104.5 8.1-108.1c.9-9.1-.9-16.7-5.6-23.6-7.8-11.7-21.9-17.4-35.2-14.2z"/>
    </g>
</svg>
