<?xml version="1.0" encoding="UTF-8"?>
<svg data-bbox="0.383 0.244 1279.617 1064.756" viewBox="0 0 1280 1065" height="1420" width="1706.667" xmlns="http://www.w3.org/2000/svg" data-type="shape">
    <g>
        <path d="M830.7 1.6c-52.2 9.8-93 50.7-102.3 102.4-2 11.3-2 33 .1 44.4 4.4 24.5 15.9 46.7 33.7 65.2 14.7 15.3 32.2 26.2 51.6 32.4 9.2 3 22.7 5.8 23.6 4.9.2-.2 15.8-31.2 34.5-68.7 21.5-42.9 34.6-68.2 35.4-67.9 31.9 11.8 59.4 22.2 60 22.7.9.8-6.4 30.3-13.2 53-2.7 9.1-4.8 16.6-4.6 16.8.7.7 10.7-13.9 14.9-21.7 25.9-49.2 16.6-109.3-22.8-148.6C925 20 906.2 9.4 882.5 3.4 869.8.1 843.3-.8 830.7 1.6z"/>
        <path d="M1038.7 52.7c-.1.1-.1 6.7.1 14.7l.3 14.6H1214V53l-87.6-.2c-48.2-.2-87.6-.2-87.7-.1z"/>
        <path d="M1030.7 85.7c-.4.3-.7 4.2-.7 8.5v7.8h227V85h-112.8c-62.1 0-113.2.3-113.5.7z"/>
        <path d="M1045 118.5V132l92.3-.2 92.2-.3v-26l-92.2-.3-92.3-.2v13.5z"/>
        <path d="M855.6 229.7c-29.5 59.1-53.9 107.3-54.2 107-.3-.3-7.6-24.1-16.3-53l-15.8-52.6-9.2-9.7c-5-5.3-11.4-12.7-14.2-16.3-9.1-12-18.6-33.7-25.4-58.4-.9-3.1-2-5.7-2.4-5.7-.5 0-2.8 1.5-5.2 3.3-11 8.4-33 23.8-77.4 54.2C473 309.7 400 365.9 335.1 429.5c-58 56.9-90.8 105.5-98.7 146.2-2 10.4-2.3 27.4-.5 35.8 3.1 14.3 10.8 29.1 21.2 40.2 3.8 4.2 5.9 5.5 13.4 8.2 39.7 14.3 122.8 24.5 243 29.6 20.4.8 44.7 1.9 54.1 2.3l17.1.7-10.2 40C527 918.3 497 1036.7 497 1037.7c0 .7 1.7 1.7 3.8 2.2 7 1.9 100.1 25.1 100.6 25.1 1 0 18.4-59.5 32.1-109.5 39.3-143.6 59.6-248.1 59.7-307 .1-20.1-.9-28.9-4.4-39.5-1.8-5.4-3.2-7.6-8.7-13-10.4-10.3-26.8-17.8-54.6-25-37-9.6-91.5-16.8-151.5-20-11.3-.7-22.5-1.5-24.8-1.8l-4.4-.7 21.9-20c12-11.1 59.6-54.7 105.8-97 46.2-42.3 91.9-84.1 101.5-92.9 9.6-8.8 17.8-16.5 18.1-17 .4-.4 1.8 1.1 3.1 3.5 16.6 29.6 26 43.4 39.3 57.6 16.9 18.3 38 29.2 56.3 29.3 12.4 0 29.4-6.2 43.4-15.9 8-5.5 23.7-20.9 31.9-31.1 25.4-32 51.3-85.1 72.4-148.2 9.9-29.8 22.4-74.2 21.2-75.4-.4-.5-19.2-7.7-44.7-17.2l-5.6-2-53.8 107.5z"/>
        <path d="M1030.7 134.7c-.4.3-.7 3.9-.7 8v7.3h210.1l-.3-7.8-.3-7.7-104.1-.3c-57.2-.1-104.4.1-104.7.5z"/>
        <path d="M1035.8 157.3l-1.5 5.6 4.1.6c2.3.3 17.8 1.9 34.6 3.5 36.8 3.6 112.6 11 148.7 14.6l26.1 2.6 11.9-6.8c6.5-3.7 12-6.9 12.2-7.1.8-.5-4.2-5.4-8.8-8.6-7.8-5.4-14.5-6.8-36.6-7.8-11-.5-58-1.2-104.5-1.5l-84.6-.7-1.6 5.6z"/>
        <path d="M1032 177v12h104.5c103 0 104.5 0 104.5-2 0-2.4-.3-2.4-28.5-4.5-12.1-.9-39.5-3.4-61-5.6-21.4-2.1-55-5.5-74.5-7.4-19.5-1.9-37.6-3.7-40.2-3.9l-4.8-.5V177z"/>
        <path d="M1049.2 198.7l.3 7.8h209l.3-7.8.3-7.7h-210.2l.3 7.7z"/>
        <path d="M1038.8 211.2c-.2 1.3-.2 6.5 0 11.5l.3 9.3H1230v-23h-190.9l-.3 2.2z"/>
        <path d="M1052 246v11h191v-22h-191v11z"/>
        <path d="M1042 263.5v3.5h170v-7h-170v3.5z"/>
        <path d="M1119.5 270.7c-69 1.3-82.1 2.4-90.4 7.6-4.3 2.6-11.1 8.6-11.1 9.7 0 .5 5.3 3.9 11.7 7.6l11.8 6.7 18-1.7c9.9-1 26.6-2.6 37-3.6 10.5-1.1 33.2-3.3 50.5-5 17.3-1.7 45-4.4 61.5-6 16.5-1.6 33.5-3.2 37.8-3.6 4.3-.4 7.9-1 8.2-1.4.2-.3-.3-3-1.1-5.8l-1.6-5.2-59.1.2c-32.6.1-65.5.4-73.2.5z"/>
        <path d="M1245.5 285.1c-4.4.5-26.2 2.7-48.5 4.9-132.3 13-137.1 13.5-144.7 15.6-.7.2-1.3 1.3-1.3 2.4 0 2 .1 2 102 2h102v-13c0-7.2-.3-12.9-.7-12.9-.5.1-4.4.6-8.8 1z"/>
        <path d="M1027.4 314.3c-.2.7-.3 6.5-.2 12.8l.3 11.4 103.3.3 103.2.2v-26h-103c-84.1 0-103.2.2-103.6 1.3z"/>
        <path d="M8.6 364.6C3.8 383.7.1 399.5.4 399.7c.3.3 7.5 2.2 16.1 4.3 8.7 2.1 16.8 4.6 18.2 5.7 1.5 1 4 4.5 5.7 7.8l3.1 5.9-.1 23c-.1 19.2-.7 29-3.8 58.1-9.1 85.8-10.8 108.5-10.8 143-.1 54.1 6.5 81 24.8 101.4 9.6 10.7 24.8 18 45.7 22 25.1 4.9 44.2 6.2 89.5 6.2 27 0 36.2.3 36.2 1.2 0 .7 1.1 42.8 2.5 93.7l2.5 92.5-3.8 3.5c-52.6 48.7-97.2 90.3-97.2 90.6 0 .2 22.2.4 49.3.4h49.2l15.4-16.6 15.4-16.5 16.6 16.5 16.6 16.6h102l-50.4-50.4-50.4-50.4 1.6-75.4c1-41.4 2-83 2.3-92.4l.7-17 27.6-2.3c15.2-1.2 46.3-3.8 69.1-5.7 22.8-1.9 43.1-3.4 45-3.4 1.9 0 4-.4 4.6-.8.9-.5.2-10.3-2.3-36.2-1.9-19.5-3.6-35.6-3.7-35.7 0-.1-16.1 1.2-35.6 2.7-19.5 1.6-41.6 3.4-49 4-7.4.6-18.7 1.5-25 2-68.6 5.5-97 7-136.4 7-36.5 0-71.8-2.6-82.3-6.1-6.1-2-7.8-14-7.7-52.9 0-30.5 1.1-45.9 7-104 6.9-67.3 7.4-73.7 8.1-93.5.5-16.6.3-21.8-1.1-30.4-5.7-34.1-24-59.5-54.1-75.4-3.6-1.9-41-12.7-44-12.7-.1 0-4.1 15.6-8.9 34.6z"/>
        <path d="M1043.2 360.2l.3 18.3 102.8.3 102.7.2v-37h-206l.2 18.2z"/>
        <path d="M1053 400v18h181v-36h-181v18z"/>
        <path d="M631 459v36l219.1.2 219.1.3 9.9 32c40.6 131.2 72.3 260.9 84.4 345 5.1 35.6 6 46.5 6 74 0 23.1-.5 29.6-3.1 38.7-.5 1.7-9 1.8-160 1.8H847v72h166.8c185.9 0 172.7.5 187.3-7.1 10.3-5.4 21.8-17.2 27.6-28.5 12.8-24.7 16.6-60 12.2-113.9-6.1-75.6-33.2-201.3-73.5-340.5-5.8-19.9-20.8-69.2-22.1-72.7-.4-1.1 12-1.3 67.1-1.3h67.6v-72H631v36z"/>
    </g>
</svg>
